# xmcd
#
# Track frame offsets:
#	150
#	10808
#	24111
#	40653
#	49183
#	67139
#	83280
#	97592
#	113696
#	125047
#	137946
#	154861
#	168396
#	176989
#	193111
#
# Disc length: 2803 seconds
#
# Revision: 1
# Processed by: cddbd v1.5.2PL0 Copyright (c) Steve Scherf et al.
# Submitted via: audiograbber 1.83.01
#
DISCID=bd0af10f
DTITLE=Ernie Ashworth - Songs From The Heart And Lips Of Ernie Ashworth
DYEAR=2000
DGENRE=Country
TTITLE0=Time Train
TTITLE1=Beautiful Memories Of You
TTITLE2=I´ll Cry Enough For Two
TTITLE3=Call It Kissing Time
TTITLE4=Easyly Undone
TTITLE5=Staring At The Frame
TTITLE6=You Can´t Blame A Man For Crying
TTITLE7=When The Blues Hit Your Heart
TTITLE8=I Can´t See Jesus
TTITLE9=Just Like My Love Without You
TTITLE10=I´m Farther Along
TTITLE11=Play Talk Back Trembling Lips
TTITLE12=All For Christmas Night
TTITLE13=Ain´t No Backdoor
TTITLE14=Borrow Bottle
EXTD=
EXTT0=
EXTT1=
EXTT2=
EXTT3=
EXTT4=
EXTT5=
EXTT6=
EXTT7=
EXTT8=
EXTT9=
EXTT10=
EXTT11=
EXTT12=
EXTT13=
EXTT14=
PLAYORDER=
